<?xml version="1.0" encoding="iso-8859-1"?>
<!-- Generator: Adobe Illustrator 19.0.0, SVG Export Plug-In . SVG Version: 6.00 Build 0)  -->
<svg version="1.1" id="Layer_1" xmlns="http://www.w3.org/2000/svg" xmlns:xlink="http://www.w3.org/1999/xlink" x="0px" y="0px"
	 viewBox="0 0 512 512" style="enable-background:new 0 0 512 512;" xml:space="preserve">
<path d="M440.149,257.618l-358.4-256c-2.56-1.877-5.973-2.133-8.875-0.683c-2.816,1.451-4.608,4.352-4.608,7.595v358.4
	c0,4.693,3.84,8.533,8.533,8.533h358.4c4.693,0,8.533-3.84,8.533-8.533v-102.4C443.733,261.799,442.368,259.154,440.149,257.618z
	 M426.667,358.396H85.333V25.084l341.333,243.797V358.396z"/>
<polygon style="fill:#7E939E;" points="426.667,268.882 426.667,358.396 392.533,358.396 392.533,281.596 85.333,79.1 
	85.333,25.084 "/>
<polygon style="fill:#AFAFAF;" points="392.533,281.596 392.533,358.396 85.333,358.396 85.333,79.1 "/>
<path d="M503.467,392.53H8.533C3.84,392.53,0,396.37,0,401.063v102.4c0,4.693,3.84,8.533,8.533,8.533h494.933
	c4.693,0,8.533-3.84,8.533-8.533v-102.4C512,396.37,508.16,392.53,503.467,392.53z M494.933,494.93H17.067v-85.333h25.6v17.067
	c0,4.693,3.84,8.533,8.533,8.533s8.533-3.84,8.533-8.533v-17.067h34.133v34.133c0,4.693,3.84,8.533,8.533,8.533
	c4.693,0,8.533-3.84,8.533-8.533v-34.133h34.133v17.067c0,4.693,3.84,8.533,8.533,8.533s8.533-3.84,8.533-8.533v-17.067h34.133
	v34.133c0,4.693,3.84,8.533,8.533,8.533c4.693,0,8.533-3.84,8.533-8.533v-34.133h34.133v17.067c0,4.693,3.84,8.533,8.533,8.533
	c4.693,0,8.533-3.84,8.533-8.533v-17.067h34.133v34.133c0,4.693,3.84,8.533,8.533,8.533s8.533-3.84,8.533-8.533v-34.133h34.133
	v17.067c0,4.693,3.84,8.533,8.533,8.533s8.533-3.84,8.533-8.533v-17.067h34.133v34.133c0,4.693,3.84,8.533,8.533,8.533
	c4.693,0,8.533-3.84,8.533-8.533v-34.133h34.133v17.067c0,4.693,3.84,8.533,8.533,8.533s8.533-3.84,8.533-8.533v-17.067h25.6V494.93
	z"/>
<g>
	<rect x="17.067" y="409.596" style="fill:#F6981E;" width="25.6" height="17.067"/>
	<rect x="59.733" y="409.596" style="fill:#F6981E;" width="34.133" height="17.067"/>
	<rect x="110.933" y="409.596" style="fill:#F6981E;" width="34.133" height="17.067"/>
	<rect x="162.133" y="409.596" style="fill:#F6981E;" width="34.133" height="17.067"/>
	<rect x="213.333" y="409.596" style="fill:#F6981E;" width="34.133" height="17.067"/>
	<rect x="264.533" y="409.596" style="fill:#F6981E;" width="34.133" height="17.067"/>
	<rect x="315.733" y="409.596" style="fill:#F6981E;" width="34.133" height="17.067"/>
	<rect x="366.933" y="409.596" style="fill:#F6981E;" width="34.133" height="17.067"/>
	<rect x="418.133" y="409.596" style="fill:#F6981E;" width="34.133" height="17.067"/>
	<rect x="469.333" y="409.596" style="fill:#F6981E;" width="25.6" height="17.067"/>
	<path style="fill:#F6981E;" d="M494.933,426.663v68.267H460.8v-59.733c4.693,0,8.533-3.84,8.533-8.533H494.933z"/>
</g>
<path style="fill:#FDB50D;" d="M460.8,435.196v59.733H17.067v-68.267h25.6c0,4.693,3.84,8.533,8.533,8.533s8.533-3.84,8.533-8.533
	h34.133v17.067c0,4.693,3.84,8.533,8.533,8.533c4.693,0,8.533-3.84,8.533-8.533v-17.067h34.133c0,4.693,3.84,8.533,8.533,8.533
	s8.533-3.84,8.533-8.533h34.133v17.067c0,4.693,3.84,8.533,8.533,8.533c4.693,0,8.533-3.84,8.533-8.533v-17.067h34.133
	c0,4.693,3.84,8.533,8.533,8.533c4.693,0,8.533-3.84,8.533-8.533h34.133v17.067c0,4.693,3.84,8.533,8.533,8.533
	s8.533-3.84,8.533-8.533v-17.067h34.133c0,4.693,3.84,8.533,8.533,8.533s8.533-3.84,8.533-8.533h34.133v17.067
	c0,4.693,3.84,8.533,8.533,8.533c4.693,0,8.533-3.84,8.533-8.533v-17.067h34.133C452.267,431.356,456.107,435.196,460.8,435.196z"/>
<g>
</g>
<g>
</g>
<g>
</g>
<g>
</g>
<g>
</g>
<g>
</g>
<g>
</g>
<g>
</g>
<g>
</g>
<g>
</g>
<g>
</g>
<g>
</g>
<g>
</g>
<g>
</g>
<g>
</g>
</svg>
