<?xml version="1.0" encoding="iso-8859-1"?>
<!-- Uploaded to: SVG Repo, www.svgrepo.com, Generator: SVG Repo Mixer Tools -->
<svg height="800px" width="800px" version="1.1" id="Layer_1" xmlns="http://www.w3.org/2000/svg" xmlns:xlink="http://www.w3.org/1999/xlink" 
	 viewBox="0 0 512 512" xml:space="preserve">
<circle style="fill:#273B7A;" cx="256" cy="256" r="256"/>
<path style="fill:#121149;" d="M511.698,268.34L349.205,104.696l-30.98,32.93H189.038l5.172,5.315h-14.062l-61.142,116.743
	l-39.815,2.362L191.247,375.13l-24.89,36.135l100.49,100.49c17.511-0.731,34.566-3.217,50.995-7.294l1.369-1.369l0.831,0.831
	c44.608-11.49,84.501-34.706,116.215-66.158l1.51-1.51C480.949,392.713,508.594,333.741,511.698,268.34z"/>
<path style="fill:#FFEDB5;" d="M426.667,247.38h-23.468l-66.134-114.548l11.735-20.323c2.381-4.124,0.969-9.394-3.155-11.774
	c-4.127-2.388-9.395-0.967-11.774,3.155l-11.733,20.323h-132.27l-11.733-20.323c-2.381-4.124-7.652-5.542-11.774-3.155
	c-4.124,2.381-5.535,7.651-3.155,11.774l11.735,20.323L108.801,247.38H85.333c-4.761,0-8.62,3.858-8.62,8.62
	c0,4.761,3.858,8.62,8.62,8.62h23.468l66.134,114.548L163.2,399.491c-2.381,4.124-0.969,9.394,3.155,11.774
	c1.357,0.784,2.839,1.157,4.301,1.157c2.981,0,5.877-1.546,7.473-4.311l11.733-20.323h132.27l11.733,20.323
	c1.596,2.765,4.493,4.311,7.473,4.311c1.462,0,2.944-0.372,4.301-1.157c4.124-2.381,5.535-7.651,3.155-11.774l-11.735-20.323
	l66.134-114.548h23.473c4.761,0,8.62-3.858,8.62-8.62C435.286,251.239,431.428,247.38,426.667,247.38z M383.293,247.38h-45.403
	l-33.48-57.99l22.7-39.319L383.293,247.38z M241.071,247.38h-47.056l23.528-40.751L241.071,247.38z M232.472,198.01h47.056
	L256,238.761L232.472,198.01z M241.071,264.62l-23.528,40.751l-23.528-40.751H241.071z M256,273.239l23.528,40.751h-47.056
	L256,273.239z M270.929,264.62h47.056l-23.528,40.751L270.929,264.62z M270.929,247.38l23.528-40.751l23.528,40.751H270.929z
	 M312.182,141.452l-22.702,39.321h-66.962l-22.7-39.321H312.182z M184.889,150.071l22.7,39.319l-33.48,57.99h-45.402
	L184.889,150.071z M128.707,264.62h45.402l33.48,57.99l-22.7,39.319L128.707,264.62z M199.818,370.548l22.702-39.321h66.962
	l22.702,39.321H199.818z M327.111,361.929l-22.7-39.319l33.48-57.99h45.403L327.111,361.929z"/>
<path style="fill:#FEE187;" d="M426.667,247.38h-23.468l-66.134-114.548l11.735-20.323c2.381-4.124,0.969-9.394-3.155-11.774
	c-4.127-2.388-9.395-0.967-11.774,3.155l-11.733,20.323h-66.708v17.239h56.756l-22.702,39.321h-34.054v17.239h24.102L256,238.761
	l-0.574-0.995v36.466l0.574-0.995l23.528,40.751h-24.102v17.239h34.054l22.702,39.321h-56.756v17.239h66.708l11.733,20.323
	c1.596,2.765,4.493,4.312,7.473,4.312c1.462,0,2.944-0.372,4.301-1.157c4.124-2.381,5.535-7.651,3.155-11.774l-11.735-20.323
	l66.134-114.548h23.471c4.761,0,8.62-3.858,8.62-8.62C435.286,251.239,431.428,247.38,426.667,247.38z M294.457,206.629
	l23.528,40.751h-47.056L294.457,206.629z M270.929,264.62h47.056l-23.528,40.751L270.929,264.62z M327.111,361.929l-22.7-39.319
	l33.48-57.99h45.403L327.111,361.929z M337.891,247.38l-33.48-57.99l22.7-39.319l56.182,97.309H337.891z"/>
</svg>