<svg xmlns="http://www.w3.org/2000/svg" shape-rendering="geometricPrecision" text-rendering="geometricPrecision" image-rendering="optimizeQuality" fill-rule="evenodd" clip-rule="evenodd" viewBox="0 0 512 512"><path fill-rule="nonzero" d="M349.48 5.54c1.87-4.56 7.09-6.74 11.66-4.87 4.56 1.88 6.74 7.1 4.87 11.66l-13.43 32.59c13.85 25.26 30.42 47.39 49.64 66.48 18.78 18.65 40.11 34.4 63.91 47.36l33.08-13.78c4.56-1.89 9.8.27 11.7 4.83 1.89 4.57-.27 9.8-4.84 11.7l-32.72 13.63c-7.44 28.29-11.08 55.85-10.98 82.69.1 26.67 3.92 52.73 11.39 78.18l32.7 13.47c4.56 1.87 6.74 7.09 4.87 11.66-1.88 4.56-7.1 6.74-11.66 4.87l-32.75-13.49c-23.47 14.28-44.56 30.94-63.39 49.88-19 19.11-35.68 40.52-50.13 64.12l13.62 32.69c1.89 4.56-.27 9.8-4.83 11.7a8.956 8.956 0 0 1-11.7-4.84l-13.84-33.22a375.673 375.673 0 0 0-78.35-10.38c-26.52-.7-53.26 1.38-80.2 6.15l-15.58 37.84c-1.87 4.56-7.1 6.74-11.66 4.87-4.56-1.88-6.74-7.1-4.87-11.66l15.75-38.24c-15.46-21.56-32.96-41.11-52.36-58.73-20.06-18.22-42.1-34.34-65.97-48.43l-30.62 12.75c-4.57 1.89-9.81-.27-11.7-4.83-1.89-4.57.27-9.8 4.83-11.7l31.01-12.91c8.05-26.76 12.58-53.57 12.81-80.5.23-26.95-3.83-54.16-12.95-81.69L5.54 162.52c-4.56-1.87-6.74-7.1-4.87-11.66 1.88-4.56 7.1-6.74 11.66-4.87l30.83 12.7c23.26-12.43 44.92-27.43 64.43-45.84 19.45-18.36 36.8-40.13 51.53-66.12l-14.14-33.94c-1.89-4.57.27-9.81 4.83-11.7 4.57-1.89 9.8.27 11.7 4.83l13.87 33.31c26.2 6.92 52.79 10.24 79.72 10.17 26.36-.08 53.17-3.42 80.37-9.84l14.01-34.02zM158.78 206.3c9.31-5.22 18-11.41 25.89-18.85 8.12-7.67 15.42-16.68 21.69-27.33l-14.78-35.49c-10.96 12.35-22.29 24.09-33.95 35.31-11.39 10.97-23.08 21.43-35.02 31.46l36.17 14.9zm64.24-52.73c10.57 2.51 21.27 3.72 32.08 3.69 10.95-.03 22.12-1.34 33.49-3.87l14.47-35.15c-16.09 1.37-32.09 2.11-47.96 2.14-15.84.03-31.43-.62-46.75-2.03l14.67 35.22zm82.04 6.75c5.8 9.99 12.59 18.83 20.36 26.55 7.71 7.65 16.38 14.2 25.99 19.69l35.62-14.84c-11.36-9.41-22.54-19.57-33.52-30.48-11.49-11.43-22.73-23.67-33.7-36.73l-14.75 35.81zm53.28 62.73c-2.81 11.57-4.18 22.84-4.15 33.83.04 10.75 1.46 21.3 4.22 31.63l35.9 14.78a539.52 539.52 0 0 1-2.11-47.23c-.03-15.94.62-31.91 1.91-47.91l-35.77 14.9zm-6.3 82.16c-9.55 6.05-18.22 13-26 20.84-7.68 7.72-14.5 16.27-20.49 25.61l14.71 35.32a504.522 504.522 0 0 1 31.76-35.18c11.16-11.25 22.89-21.96 35.25-32.08l-35.23-14.51zm-62.87 53.69a167.314 167.314 0 0 0-32.71-4.11c-10.7-.28-21.49.45-32.37 2.17l-14.16 34.39c15.83-.62 31.68-.75 47.52-.33 15.56.41 30.99 1.35 46.29 2.82l-14.57-34.94zm-81.75-8.4a165.816 165.816 0 0 0-21.88-24.16c-8.24-7.49-17.22-14.18-26.88-20.09l-34.59 14.41a425.452 425.452 0 0 1 35.72 29.14c11.77 10.71 23.03 22.16 33.79 34.31l13.84-33.61zm-55.52-60.82c3.12-11.07 4.87-22.12 4.97-33.16.09-11.12-1.48-22.36-4.99-33.74l-35.53-14.63c1.9 16.36 2.66 32.59 2.54 48.7-.11 16.1-1.08 31.98-2.64 47.68l35.65-14.85zm43.5-90.84c-5.87 5.54-12.13 10.46-18.7 14.84l62.74 25.84-25.77-61.86a137.189 137.189 0 0 1-18.27 21.18zm-25.46 31.38c1.81 8.85 2.63 17.65 2.56 26.42-.08 8.6-1.01 17.12-2.69 25.57l62.82-26.17-62.69-25.82zm6.19 68.75c7.06 4.86 13.72 10.12 19.95 15.79a179.67 179.67 0 0 1 18.19 19.1l25.25-61.3-63.39 26.41zm54.84 41.28c8.64-.95 17.26-1.31 25.86-1.09 8.41.22 16.78 1.02 25.12 2.4l-25.91-62.19-25.07 60.88zm67.42-5.77c5.07-6.96 10.58-13.45 16.56-19.46 6.09-6.13 12.68-11.79 19.77-16.94l-62.16-25.6 25.83 62zm42.37-53.24c-1.43-7.97-2.16-16.07-2.2-24.3v-.03c-.03-8.73.73-17.58 2.29-26.57l-61.48 25.62 61.39 25.28zm-7.03-67.32c-6.95-4.75-13.4-10.06-19.34-15.96-6.08-6.03-11.62-12.68-16.62-19.94l-25.29 61.42 61.25-25.52zm-52.27-43.22c-8.83 1.43-17.62 2.17-26.36 2.19-8.36.02-16.64-.61-24.83-1.92l25.69 61.66 25.5-61.93zm63.59-107.49-18.49 44.91c12.34 15.13 25.01 29.12 37.99 42.03 12.6 12.53 25.58 24.1 38.9 34.73l44.45-18.53c-20.84-12.43-39.76-27.03-56.71-43.86-17.48-17.35-32.87-37.09-46.14-59.28zM455.4 182.62l-44.99 18.74c-1.72 18.37-2.61 36.61-2.58 54.7.03 17.98.97 35.98 2.89 53.99l44.77 18.44c-5.73-23.01-8.66-46.54-8.75-70.6-.09-24.58 2.78-49.67 8.66-75.27zm-6.21 162.6-45.39-18.69c-14.41 11.33-27.95 23.46-40.69 36.3-12.69 12.78-24.66 26.35-35.99 40.6l18.95 45.48c13.69-20.98 29.12-40.19 46.37-57.55 17.09-17.19 35.98-32.59 56.75-46.14zM329.28 455.17l-18.68-44.86a636.33 636.33 0 0 0-53.51-3.66c-17.79-.47-35.71-.23-53.74.66l-18.23 44.28c24.62-3.79 49.14-5.4 73.55-4.75 23.67.63 47.21 3.38 70.61 8.33zM168.7 444.51l18.22-44.24c-11.8-13.8-24.35-26.77-37.67-38.88a408.497 408.497 0 0 0-42.22-33.63l-45.78 19.07c21.09 13.2 40.67 27.94 58.67 44.28 17.8 16.18 34.1 33.96 48.78 53.4zM55.38 329.89l44.37-18.48c2.07-18.25 3.38-36.47 3.51-54.62.13-18.35-.91-36.83-3.55-55.49l-44.19-18.2c6.94 24.88 10.06 49.57 9.85 74.1-.21 24.46-3.71 48.66-9.99 72.69zm6.26-163.59 44.59 18.36c13.88-11.4 27.43-23.36 40.56-36 13.12-12.63 25.84-25.96 38.08-40.13l-18.25-43.79c-14.17 22.95-30.39 42.59-48.31 59.5-17.41 16.43-36.41 30.28-56.67 42.06zM182.86 57.17l18.63 44.74c17.72 1.96 35.6 2.88 53.61 2.84 17.92-.03 36.16-1.02 54.69-2.84l18.41-44.69c-24.57 5.09-48.95 7.74-73.1 7.81-24.39.06-48.48-2.51-72.24-7.86z"/></svg>