<?xml version="1.0" encoding="iso-8859-1"?>
<!-- Uploaded to: SVG Repo, www.svgrepo.com, Generator: SVG Repo Mixer Tools -->
<svg height="800px" width="800px" version="1.1" id="Layer_1" xmlns="http://www.w3.org/2000/svg" xmlns:xlink="http://www.w3.org/1999/xlink" 
	 viewBox="0 0 512 512" xml:space="preserve">
<path style="fill:#FFFFFF;" d="M435.275,315.652c0,98.857-80.417,179.275-179.275,179.275S76.725,414.509,76.725,315.652
	c0-95.955,75.893-174.323,170.738-178.848v235.447l-95.272-146.578c-2.049-3.244-5.976-4.695-9.561-3.585
	c-3.671,1.11-6.147,4.439-6.147,8.195V401.02c0,4.695,3.842,8.537,8.537,8.537c4.695,0,8.537-3.842,8.537-8.537V259.052
	l95.272,146.578c1.622,2.476,4.354,3.927,7.171,3.927c0.768,0,1.622-0.085,2.39-0.341c3.671-1.11,6.147-4.439,6.147-8.195V136.804
	C359.382,141.328,435.275,219.697,435.275,315.652z"/>
<path d="M264.537,119.559V85.155h42.684c3.244,0,6.232-1.793,7.598-4.695c1.451-2.903,1.195-6.403-0.768-8.964L262.83,3.201
	c-3.244-4.268-10.415-4.268-13.659,0l-51.221,68.295c-1.963,2.561-2.22,6.061-0.768,8.964c1.366,2.903,4.354,4.695,7.598,4.695
	h42.684v34.404c-104.321,4.439-187.812,90.662-187.812,196.092C59.652,423.899,147.752,512,256,512s196.349-88.101,196.349-196.348
	C452.349,210.221,368.858,123.998,264.537,119.559z M221.852,68.082L256,22.58l34.148,45.502H221.852z M256,494.926
	c-98.857,0-179.275-80.417-179.275-179.275c0-95.955,75.893-174.323,170.738-178.848v235.447l-95.272-146.578
	c-2.049-3.244-5.976-4.695-9.561-3.585c-3.671,1.11-6.147,4.439-6.147,8.195V401.02c0,4.695,3.842,8.537,8.537,8.537
	c4.695,0,8.537-3.842,8.537-8.537V259.052l95.272,146.578c1.622,2.476,4.354,3.927,7.171,3.927c0.768,0,1.622-0.085,2.39-0.341
	c3.671-1.11,6.147-4.439,6.147-8.195V136.804c94.845,4.525,170.738,82.893,170.738,178.848
	C435.275,414.509,354.857,494.926,256,494.926z"/>
<polygon style="fill:#5E35B1;" points="290.148,68.082 221.852,68.082 256,22.58 "/>
<g>
	<path style="fill:#311B92;" d="M145.02,426.204c4.695,0,8.537-3.842,8.537-8.537V401.02c0,4.695-3.842,8.537-8.537,8.537
		c-4.695,0-8.537-3.842-8.537-8.537v16.647C136.484,422.363,140.325,426.204,145.02,426.204z"/>
	<path style="fill:#311B92;" d="M153.557,275.699l95.272,146.578c1.622,2.476,4.354,3.927,7.171,3.927
		c0.768,0,1.622-0.085,2.39-0.341c3.671-1.11,6.147-4.439,6.147-8.195V401.02c0,3.756-2.476,7.086-6.147,8.195
		c-0.768,0.256-1.622,0.341-2.39,0.341c-2.817,0-5.549-1.451-7.171-3.927l-95.272-146.578V275.699z"/>
</g>
</svg>