<?xml version="1.0" encoding="iso-8859-1"?>
<!-- Uploaded to: SVG Repo, www.svgrepo.com, Generator: SVG Repo Mixer Tools -->
<!DOCTYPE svg PUBLIC "-//W3C//DTD SVG 1.1//EN" "http://www.w3.org/Graphics/SVG/1.1/DTD/svg11.dtd">
<svg fill="#000000" version="1.1" id="Capa_1" xmlns="http://www.w3.org/2000/svg" xmlns:xlink="http://www.w3.org/1999/xlink" 
	 width="800px" height="800px" viewBox="0 0 49.978 49.978"
	 xml:space="preserve">
<g>
	<g>
		<path d="M45.578,24.516l-4.286-0.635c-0.193-3.89-1.81-7.405-4.356-10.029l4.039-4.038l-0.279-0.28l-4.037,4.036
			c-2.713-2.656-6.392-4.318-10.453-4.422l-0.568-3.837v3.825l0,0V5.311l-0.57,3.854c-3.899,0.187-7.425,1.804-10.055,4.355
			l-4.03-3.986l-0.301,0.301l4.028,3.985c-2.621,2.685-4.267,6.312-4.399,10.319l-3.703,0.548l3.705,0.549
			c0.147,3.952,1.769,7.529,4.342,10.192l-3.975,3.953l0.301,0.301l3.972-3.949c2.674,2.621,6.29,4.271,10.287,4.418l0.567,3.84
			v-3.812l0,0v3.812l0.567-3.84c3.977-0.146,7.574-1.781,10.244-4.379l4.055,4.053l0.301-0.301L36.92,35.47
			c2.615-2.688,4.257-6.313,4.385-10.321L45.578,24.516z M21.929,22.418l-4.201,0.622c0.285-1.426,0.94-2.709,1.856-3.768
			L21.929,22.418z M20.49,18.375c0.987-0.837,2.166-1.439,3.469-1.74l-0.565,3.815L20.49,18.375z M24.095,15.716
			c-0.213,0.04-0.425,0.086-0.632,0.142l-0.298-1.691c0.388-0.098,0.788-0.16,1.191-0.212L24.095,15.716z M23.256,15.91
			c-0.647,0.188-1.265,0.444-1.845,0.765l-0.822-1.502c0.74-0.409,1.537-0.726,2.37-0.953L23.256,15.91z M21.229,16.784
			c-0.525,0.307-1.003,0.679-1.455,1.079l-1.43-1.021c0.623-0.596,1.312-1.123,2.063-1.558L21.229,16.784z M19.061,18.571
			c-0.427,0.473-0.819,0.979-1.142,1.534l-1.368-1.04c0.417-0.688,0.917-1.313,1.47-1.89L19.061,18.571z M17.809,20.289
			c-0.324,0.592-0.578,1.229-0.766,1.89l-1.657-0.421c0.246-0.889,0.602-1.729,1.055-2.509L17.809,20.289z M16.991,22.386
			c-0.067,0.258-0.111,0.521-0.155,0.786l-1.77,0.262c0.059-0.5,0.144-0.991,0.266-1.469L16.991,22.386z M22.858,22.712l1.117,0.776
			l0.001,0.024c-0.126,0.229-0.215,0.479-0.257,0.746H12.414L22.858,22.712z M19.427,29.845c-0.819-1.003-1.4-2.194-1.675-3.508
			l3.782,0.562L19.427,29.845z M23.504,28.432l0.634,4.282c-1.46-0.304-2.771-0.99-3.838-1.952L23.504,28.432z M16.847,26.203
			c0.048,0.297,0.105,0.591,0.185,0.877l-1.692,0.287c-0.12-0.463-0.202-0.941-0.264-1.426L16.847,26.203z M17.085,27.287
			c0.213,0.703,0.514,1.365,0.881,1.986l-1.553,0.737c-0.436-0.76-0.778-1.575-1.021-2.437L17.085,27.287z M18.076,29.457
			c0.247,0.395,0.532,0.761,0.833,1.111l-1.017,1.422c-0.512-0.553-0.979-1.146-1.369-1.795L18.076,29.457z M19.585,31.279
			c0.482,0.453,1.008,0.861,1.581,1.203l-0.948,1.424c-0.744-0.451-1.428-0.992-2.041-1.603L19.585,31.279z M21.348,32.594
			c0.611,0.346,1.267,0.618,1.955,0.814l-0.44,1.652c-0.871-0.246-1.695-0.599-2.462-1.043L21.348,32.594z M23.51,33.463
			c0.249,0.064,0.505,0.105,0.761,0.15l0.262,1.771c-0.498-0.062-0.988-0.146-1.463-0.271L23.51,33.463z M23.838,27.775l0.082-0.162
			l0.688-0.989l0.308-0.019c0.147,0.076,0.303,0.135,0.465,0.18l-0.001,11.4L23.838,27.775z M24.537,24.6
			c0-0.781,0.637-1.417,1.42-1.417c0.781,0,1.416,0.636,1.416,1.417c0,0.783-0.635,1.42-1.416,1.42
			C25.174,26.02,24.537,25.383,24.537,24.6z M29.871,26.842l4.021-0.596c-0.271,1.379-0.884,2.632-1.751,3.672L29.871,26.842z
			 M31.218,30.874c-0.901,0.784-1.968,1.381-3.147,1.718l-0.033,0.007v0.003c-0.182,0.051-0.375,0.075-0.562,0.113l0.613-4.143
			l0.05,0.101L31.218,30.874z M27.97,21.086l-0.671-4.536c1.523,0.281,2.889,0.985,3.996,1.979L27.97,21.086z M32.057,19.31
			c0.842,0.983,1.45,2.161,1.756,3.463l-3.826-0.566L32.057,19.31z M34.727,22.908c-0.027-0.136-0.043-0.275-0.076-0.41l1.684-0.324
			c0.076,0.326,0.129,0.661,0.173,0.998L34.727,22.908z M34.598,22.291c-0.205-0.756-0.497-1.473-0.878-2.137l1.524-0.783
			c0.453,0.807,0.801,1.678,1.035,2.596L34.598,22.291z M33.611,19.972c-0.299-0.496-0.658-0.95-1.041-1.379l1.02-1.427
			c0.589,0.611,1.111,1.286,1.545,2.023L33.611,19.972z M31.988,17.995c-0.483-0.451-1.008-0.858-1.582-1.196l0.976-1.408
			c0.722,0.437,1.382,0.961,1.981,1.548L31.988,17.995z M30.223,16.688c-0.578-0.321-1.195-0.581-1.843-0.771l0.569-1.619
			c0.793,0.241,1.545,0.576,2.248,0.982L30.223,16.688z M28.174,15.862c-0.327-0.088-0.665-0.146-1.005-0.199l-0.261-1.765
			c0.627,0.066,1.242,0.177,1.834,0.344L28.174,15.862z M27.609,21.562l-0.688,0.987c-0.264-0.124-0.555-0.195-0.859-0.208V11.117
			L27.609,21.562z M27.343,33.615c0.287-0.047,0.571-0.102,0.849-0.178l0.313,1.687c-0.462,0.118-0.94,0.2-1.423,0.261
			L27.343,33.615z M28.398,33.387c0.696-0.208,1.354-0.5,1.971-0.857l0.759,1.541c-0.757,0.429-1.563,0.764-2.416,1.002
			L28.398,33.387z M30.552,32.419c0.491-0.302,0.94-0.66,1.364-1.046l1.43,1.021c-0.613,0.598-1.296,1.125-2.038,1.564
			L30.552,32.419z M32.656,30.615c0.344-0.396,0.666-0.809,0.938-1.258l1.39,1.006c-0.373,0.598-0.813,1.144-1.291,1.654
			L32.656,30.615z M33.708,29.175c0.388-0.676,0.688-1.407,0.895-2.177l1.632,0.521c-0.261,0.946-0.646,1.838-1.138,2.661
			L33.708,29.175z M34.656,26.791c0.053-0.221,0.086-0.449,0.125-0.678l1.75-0.258c-0.054,0.494-0.125,0.984-0.246,1.457
			L34.656,26.791z M29.328,26.488l-1.115-0.774l-0.039-0.657c0.008-0.038,0.021-0.075,0.025-0.113h11.414
			c0,0.008-0.002,0.016-0.002,0.024L29.328,26.488z M39.576,23.626l-2.631-0.39c-0.314-2.485-1.436-4.719-3.102-6.426l0.387-0.539
			l-0.519,0.398c-1.8-1.781-4.201-2.952-6.867-3.199l-0.386-2.607C33.434,11.191,39.062,16.7,39.576,23.626z M25.636,10.839v3.405
			V10.839L25.636,10.839z M24.811,10.881l-0.391,2.638c-0.45,0.053-0.896,0.12-1.33,0.228l-0.001-0.008l-0.21,0.037l0.005,0.024
			c-1.869,0.504-3.542,1.482-4.894,2.789l-0.872-0.623l0.634,0.851c-1.723,1.766-2.864,4.096-3.13,6.684l-2.599,0.385
			C12.407,16.953,17.909,11.376,24.811,10.881z M12.028,25.489l2.619,0.388c0.175,1.588,0.664,3.082,1.43,4.402l0.051,0.104
			l0.012-0.005c0.424,0.714,0.931,1.37,1.496,1.972l-0.517,0.723l0.711-0.517c1.77,1.789,4.133,2.979,6.768,3.265l0.386,2.611
			C18.025,38.021,12.447,32.447,12.028,25.489z M25.807,38.475v-3.418V38.475L25.807,38.475z M26.63,38.433l0.388-2.618
			c2.592-0.279,4.922-1.432,6.68-3.168l0.973,0.694l-0.715-0.968c1.664-1.756,2.765-4.043,3.021-6.584l2.613-0.387
			C39.211,32.402,33.617,38.018,26.63,38.433z"/>
		<polygon points="24.993,2.098 25.004,2.098 26.433,4.006 27.908,4.006 27.908,0.6 26.619,0.6 26.619,2.488 26.605,2.488 
			25.24,0.6 23.706,0.6 23.706,4.006 24.993,4.006 		"/>
		<path d="M26.656,47.16l-1.606-0.238c-0.066-0.01-0.113-0.027-0.138-0.061c-0.025-0.029-0.039-0.068-0.039-0.115
			c0-0.073,0.04-0.133,0.119-0.178c0.079-0.045,0.22-0.066,0.42-0.066c0.072,0,0.146,0.006,0.22,0.018s0.142,0.029,0.198,0.055
			c0.066,0.025,0.115,0.061,0.152,0.104c0.035,0.042,0.055,0.1,0.055,0.169h1.563c-0.012-0.183-0.062-0.342-0.149-0.479
			c-0.088-0.139-0.219-0.254-0.396-0.348s-0.399-0.166-0.67-0.215c-0.271-0.05-0.595-0.074-0.974-0.074
			c-0.277,0-0.535,0.018-0.775,0.051c-0.24,0.033-0.448,0.092-0.625,0.18c-0.176,0.086-0.314,0.199-0.417,0.345
			c-0.102,0.146-0.152,0.327-0.152,0.548c0,0.12,0.018,0.233,0.053,0.338c0.034,0.105,0.089,0.198,0.164,0.281
			c0.075,0.082,0.172,0.153,0.288,0.213c0.117,0.059,0.259,0.102,0.426,0.127l1.535,0.229c0.094,0.017,0.156,0.046,0.191,0.088
			c0.035,0.043,0.053,0.092,0.053,0.143c0,0.082-0.037,0.148-0.109,0.199c-0.073,0.051-0.215,0.076-0.426,0.076
			c-0.207,0-0.357-0.023-0.457-0.07c-0.092-0.052-0.139-0.133-0.144-0.244h-1.621c0,0.252,0.063,0.451,0.192,0.603
			c0.129,0.147,0.297,0.265,0.506,0.345c0.207,0.082,0.44,0.137,0.698,0.16c0.258,0.025,0.516,0.038,0.772,0.038
			c0.758,0,1.312-0.099,1.662-0.298c0.352-0.198,0.526-0.506,0.526-0.924c0-0.289-0.097-0.514-0.29-0.676
			C27.269,47.32,27.001,47.212,26.656,47.16z"/>
		<polygon points="3.83,25.029 3.82,25.029 3.323,22.949 2.25,22.949 1.749,25.029 1.74,25.029 1.301,22.949 0,22.949 0.991,26.355 
			2.312,26.355 2.78,24.467 2.789,24.467 3.253,26.355 4.573,26.355 5.57,22.949 4.268,22.949 		"/>
		<polygon points="49.978,23.565 49.978,22.735 46.357,22.735 46.357,26.141 49.978,26.141 49.978,25.311 47.703,25.311 
			47.703,24.853 49.816,24.853 49.816,24.023 47.703,24.023 47.703,23.565 		"/>
	</g>
</g>
</svg>