<?xml version="1.0" encoding="iso-8859-1"?>
<!-- Uploaded to: SVG Repo, www.svgrepo.com, Generator: SVG Repo Mixer Tools -->
<svg height="800px" width="800px" version="1.1" id="Layer_1" xmlns="http://www.w3.org/2000/svg" xmlns:xlink="http://www.w3.org/1999/xlink" 
	 viewBox="0 0 512 512" xml:space="preserve">
<path style="fill:#D81B60;" d="M325.973,420.523l-63.403-76.117c-1.621-1.963-4.011-3.072-6.571-3.072
	c-2.56,0-4.949,1.109-6.571,3.072l-63.403,76.117L256,84.48L325.973,420.523z"/>
<path d="M256,0C114.859,0,0,114.859,0,256s114.859,256,256,256s256-114.859,256-256S397.141,0,256,0z M256,494.933
	C124.245,494.933,17.067,387.755,17.067,256S124.245,17.067,256,17.067S494.933,124.245,494.933,256S387.755,494.933,256,494.933z"
	/>
<path style="fill:#FFFFFF;" d="M256,17.067C124.245,17.067,17.067,124.245,17.067,256S124.245,494.933,256,494.933
	S494.933,387.755,494.933,256S387.755,17.067,256,17.067z M345.088,477.013c-1.195,0.597-2.475,0.853-3.755,0.853
	c-2.475,0-4.864-1.109-6.571-3.072L256,380.245l-78.763,94.549c-2.56,2.987-6.741,3.925-10.325,2.219
	c-3.499-1.707-5.376-5.547-4.608-9.387l2.048-9.728c-1.792-1.963-2.56-4.608-2.048-7.339l85.333-409.6
	c0.853-4.011,4.352-6.827,8.363-6.827c4.011,0,7.509,2.816,8.363,6.827l85.333,409.6c0.512,2.731-0.256,5.376-2.048,7.339
	l2.048,9.728C350.464,471.467,348.587,475.307,345.088,477.013z"/>
<path d="M264.363,40.96c-0.853-4.011-4.352-6.827-8.363-6.827c-4.011,0-7.509,2.816-8.363,6.827l-85.333,409.6
	c-0.512,2.731,0.256,5.376,2.048,7.339c0.341,0.341,0.683,0.768,1.024,1.024c0.427,0.427,0.939,0.768,1.536,1.024
	c3.584,1.707,7.765,0.768,10.325-2.219L256,363.179l78.763,94.549c1.707,1.963,4.096,3.072,6.571,3.072
	c1.28,0,2.56-0.256,3.755-0.853c0.597-0.256,1.109-0.597,1.536-1.024c0.341-0.256,0.683-0.683,1.024-1.024
	c1.792-1.963,2.56-4.608,2.048-7.339L264.363,40.96z M262.571,344.405c-1.621-1.963-4.011-3.072-6.571-3.072
	c-2.56,0-4.949,1.109-6.571,3.072l-63.403,76.117l4.779-22.784L256,84.48l65.195,313.259l4.779,22.784L262.571,344.405z"/>
<path style="fill:#F4F4F4;" d="M345.088,477.013c-1.195,0.597-2.475,0.853-3.755,0.853c-2.475,0-4.864-1.109-6.571-3.072
	L256,380.245l-78.763,94.549c-2.56,2.987-6.741,3.925-10.325,2.219c-3.499-1.707-5.376-5.547-4.608-9.387l2.048-9.728
	c0.341,0.341,0.683,0.768,1.024,1.024c0.427,0.427,0.939,0.768,1.536,1.024c3.584,1.707,7.765,0.768,10.325-2.219L256,363.179
	l78.763,94.549c1.707,1.963,4.096,3.072,6.571,3.072c1.28,0,2.56-0.256,3.755-0.853c0.597-0.256,1.109-0.597,1.536-1.024
	c0.341-0.256,0.683-0.683,1.024-1.024l2.048,9.728C350.464,471.467,348.587,475.307,345.088,477.013z"/>
<path style="fill:#AD1457;" d="M262.571,327.339c-1.621-1.963-4.011-3.072-6.571-3.072c-2.56,0-4.949,1.109-6.571,3.072
	l-58.667,70.426l-4.736,22.758l63.403-76.117c1.621-1.963,4.011-3.072,6.571-3.072c2.56,0,4.949,1.109,6.571,3.072l63.403,76.117
	l-4.736-22.758L262.571,327.339z"/>
</svg>