<?xml version="1.0" encoding="iso-8859-1"?>
<!-- Uploaded to: SVG Repo, www.svgrepo.com, Generator: SVG Repo Mixer Tools -->
<svg height="800px" width="800px" version="1.1" id="Layer_1" xmlns="http://www.w3.org/2000/svg" xmlns:xlink="http://www.w3.org/1999/xlink" 
	 viewBox="0 0 502.228 502.228" xml:space="preserve">
<g>
	<path style="fill:#FFCD00;" d="M428.614,296.927V455l-319.586-53.326v-60.475l-19.999,25.144l-20.001-25.147v94.356l399.586,66.674
		V296.926c-6.129,2.686-12.891,4.188-20,4.188C441.504,301.114,434.742,299.613,428.614,296.927z"/>
	<path style="fill:#FFDA44;" d="M109.028,146.134v-45.581l319.586-53.326v158.073c6.129-2.686,12.891-4.187,20-4.187
		c7.109,0,13.871,1.501,20,4.188V0L69.028,66.674v79.459c6.418-1.546,13.115-2.37,20.001-2.37
		C95.914,143.763,102.61,144.588,109.028,146.134z"/>
	<path style="fill:#2488FF;" d="M398.613,251.113c0,20.461,12.359,38.082,30,45.813c6.129,2.686,12.891,4.187,20,4.187v-100
		c-7.109,0-13.871,1.501-20,4.187C410.973,213.032,398.613,230.652,398.613,251.113z"/>
	<path style="fill:#005ECE;" d="M498.614,251.113c0-20.461-12.36-38.081-30-45.812c-6.129-2.686-12.891-4.188-20-4.188v100
		c7.109,0,13.871-1.501,20-4.188C486.254,289.195,498.614,271.574,498.614,251.113z"/>
	<path style="fill:#CD2A00;" d="M174.444,229.178c0-40.215-27.937-74.018-65.416-83.044c-6.418-1.546-13.114-2.371-19.999-2.371
		v53.573c17.553,0,31.842,14.281,31.842,31.842c0,17.553-14.289,31.842-31.842,31.842v105.324l19.999-25.144l47.019-59.116
		C167.908,267.086,174.444,248.291,174.444,229.178z"/>
	<path style="fill:#D8D7DA;" d="M120.87,229.178c0-17.561-14.289-31.842-31.842-31.842v63.683
		C106.581,261.02,120.87,246.731,120.87,229.178z"/>
	<path style="fill:#FF3501;" d="M89.029,261.02c-17.561,0-31.842-14.289-31.842-31.842c0-17.561,14.281-31.842,31.842-31.842
		v-53.573c-6.886,0-13.583,0.825-20.001,2.37c-37.482,9.026-65.414,42.829-65.414,83.045c0,19.113,6.535,37.907,18.428,52.945
		l46.986,59.074l20.001,25.147V261.02z"/>
	<path style="fill:#FFFFFF;" d="M57.187,229.178c0,17.553,14.281,31.842,31.842,31.842v-63.683
		C71.468,197.337,57.187,211.618,57.187,229.178z"/>
</g>
</svg>